<svg width="256" height="256" xmlns="http://www.w3.org/2000/svg"><defs><linearGradient x1="0%" y1="0%" y2="100%" id="a"><stop stop-color="#8D45E6" offset="0%"/><stop stop-color="#7638C2" offset="100%"/></linearGradient></defs><g fill="none" fill-rule="evenodd"><path fill="url(#a)" d="M0 0h256v256H0z"/><path d="M121.289 165.776L90.38 134.562c-12.186-12.06-17.131-28.73-14.835-44.515 1.59-10.818 6.535-21.282 14.835-29.618 20.31-20.572 53.338-20.572 73.825 0l13.246 13.124c4.062 4.08 4.062 10.819 0 14.898-4.063 4.079-10.774 4.079-14.836 0L149.37 75.15c-12.186-12.238-32.143-12.238-44.33 0-12.186 12.237-12.186 32.277 0 44.515l31.084 31.213c4.062 4.08 4.062 10.819 0 14.898-4.062 4.079-10.773 4.079-14.835 0zm44.33-44.515c12.186 12.06 17.131 28.73 14.835 44.692-1.59 10.818-6.535 21.282-14.835 29.618-20.31 20.572-53.338 20.572-73.825 0l-13.246-13.302c-4.062-4.079-4.062-10.818 0-14.897 4.063-4.08 10.774-4.08 14.836 0l13.246 13.301c12.186 12.237 32.143 12.237 44.33 0 12.186-12.237 12.186-32.278 0-44.515l-31.084-31.214c-4.062-4.079-4.062-10.818 0-14.897 4.062-4.08 10.773-4.08 14.835 0l30.908 31.214z" fill="#FFF" fill-rule="nonzero"/></g></svg>